<svg width="20" height="20" viewBox="0 0 20 20" fill="none" xmlns="http://www.w3.org/2000/svg">
<path d="M16.6264 6.59994C16.6366 6.74687 16.6366 6.8938 16.6366 7.04209C16.6366 11.5603 13.1969 16.7712 6.9074 16.7712V16.7685C5.04945 16.7712 3.2301 16.2391 1.66602 15.2356C1.93618 15.2681 2.20769 15.2843 2.47988 15.285C4.01959 15.2864 5.51529 14.7698 6.72662 13.8184C5.26342 13.7907 3.98032 12.8367 3.53209 11.4439C4.04465 11.5427 4.57278 11.5224 5.07586 11.385C3.48063 11.0627 2.33295 9.66109 2.33295 8.03335C2.33295 8.01846 2.33295 8.00424 2.33295 7.99002C2.80827 8.25476 3.34047 8.40169 3.88485 8.41794C2.38238 7.41381 1.91925 5.41503 2.82655 3.8523C4.56262 5.98853 7.12407 7.28719 9.87375 7.42464C9.59817 6.23702 9.97464 4.99252 10.863 4.15767C12.2402 2.86306 14.4062 2.92942 15.7008 4.30595C16.4666 4.15496 17.2006 3.87396 17.8723 3.47583C17.617 4.26736 17.0828 4.93971 16.3691 5.36696C17.0469 5.28706 17.7091 5.1056 18.3327 4.82867C17.8736 5.51659 17.2954 6.11582 16.6264 6.59994Z" fill="white"/>
</svg>
